<?xml version="1.0" encoding="utf-8"?>
<svg version="1.1" xmlns:xlink="http://www.w3.org/1999/xlink" width="34px" height="34px" xmlns="http://www.w3.org/2000/svg">
  <g transform="matrix(1 0 0 1 -105 -2181 )">
    <path d="M 6.375 0  L 27.625 0  C 29.3810763888889 0  30.8825954861111 0.623480902777828  32.1295572916667 1.87044270833326  C 33.3765190972222 3.11740451388891  34 4.61892361111109  34 6.375  L 34 27.625  C 34 29.3810763888889  33.3765190972222 30.8825954861111  32.1295572916667 32.1295572916667  C 30.8825954861111 33.3765190972222  29.3810763888889 34  27.625 34  L 23 34  L 23 20.8294270833333  L 27.8684895833333 20.8294270833333  L 28.5325520833333 15.6940104166667  L 23.4635416666667 15.6940104166667  L 23.4635416666667 12.41796875  C 23.4635416666667 11.5915798611111  23.6369357638889 10.9717881944443  23.9837239583333 10.55859375  C 24.3305121527778 10.1453993055557  25.0056423611111 9.93880208333326  26.0091145833333 9.93880208333326  L 28.7096354166667 9.91666666666674  L 28.7096354166667 5.33463541666674  C 27.7799479166667 5.20182291666674  26.4665798611111 5.13541666666674  24.76953125 5.13541666666674  C 22.7625868055556 5.13541666666674  21.1577690972222 5.72569444444434  19.955078125 6.90625  C 18.7523871527778 8.08680555555566  18.1510416666667 9.75434027777783  18.1510416666667 11.9088541666667  L 18.1510416666667 15.6940104166667  L 13.7239583333333 15.6940104166667  L 13.7239583333333 20.8294270833333  L 18 20.8294270833333  L 18 34  L 6.375 34  C 4.6189236111111 34  3.1174045138889 33.3765190972222  1.87044270833333 32.1295572916667  C 0.623480902777771 30.8825954861111  0 29.3810763888889  0 27.625  L 0 6.375  C 0 4.61892361111109  0.623480902777771 3.11740451388891  1.87044270833333 1.87044270833326  C 3.1174045138889 0.623480902777828  4.6189236111111 0  6.375 0  Z " fill-rule="nonzero" fill="#ffffff" stroke="none" transform="matrix(1 0 0 1 105 2181 )" />
  </g>
</svg>