<?xml version="1.0" encoding="utf-8"?>
<svg version="1.1" xmlns:xlink="http://www.w3.org/1999/xlink" width="34px" height="34px" xmlns="http://www.w3.org/2000/svg">
  <g transform="matrix(1 0 0 1 -191 -2181 )">
    <path d="M 21.0065104166667 21.0065104166667  C 22.11328125 19.8997395833333  22.6666666666667 18.5642361111111  22.6666666666667 17  C 22.6666666666667 15.4357638888889  22.11328125 14.1002604166667  21.0065104166667 12.9934895833333  C 19.8997395833333 11.88671875  18.5642361111111 11.3333333333333  17 11.3333333333333  C 15.4357638888889 11.3333333333333  14.1002604166667 11.88671875  12.9934895833333 12.9934895833333  C 11.88671875 14.1002604166667  11.3333333333333 15.4357638888889  11.3333333333333 17  C 11.3333333333333 18.5642361111111  11.88671875 19.8997395833333  12.9934895833333 21.0065104166667  C 14.1002604166667 22.11328125  15.4357638888889 22.6666666666667  17 22.6666666666667  C 18.5642361111111 22.6666666666667  19.8997395833333 22.11328125  21.0065104166667 21.0065104166667  Z M 23.17578125 10.82421875  C 24.8728298611111 12.5212673611111  25.7213541666667 14.5798611111111  25.7213541666667 17  C 25.7213541666667 19.4201388888889  24.8728298611111 21.4787326388889  23.17578125 23.17578125  C 21.4787326388889 24.8728298611111  19.4201388888889 25.7213541666667  17 25.7213541666667  C 14.5798611111111 25.7213541666667  12.5212673611111 24.8728298611111  10.82421875 23.17578125  C 9.12717013888889 21.4787326388889  8.27864583333334 19.4201388888889  8.27864583333334 17  C 8.27864583333334 14.5798611111111  9.12717013888889 12.5212673611111  10.82421875 10.82421875  C 12.5212673611111 9.12717013888891  14.5798611111111 8.27864583333326  17 8.27864583333326  C 19.4201388888889 8.27864583333326  21.4787326388889 9.12717013888891  23.17578125 10.82421875  Z M 27.5143229166667 6.48567708333326  C 27.9127604166667 6.88411458333326  28.1119791666667 7.3637152777776  28.1119791666667 7.92447916666674  C 28.1119791666667 8.48524305555566  27.9127604166667 8.96484375  27.5143229166667 9.36328125  C 27.1158854166667 9.76171875  26.6362847222222 9.9609375  26.0755208333333 9.9609375  C 25.5147569444445 9.9609375  25.03515625 9.76171875  24.63671875 9.36328125  C 24.23828125 8.96484375  24.0390625 8.48524305555566  24.0390625 7.92447916666674  C 24.0390625 7.3637152777776  24.23828125 6.88411458333326  24.63671875 6.48567708333326  C 25.03515625 6.08723958333326  25.5147569444445 5.88802083333326  26.0755208333333 5.88802083333326  C 26.6362847222222 5.88802083333326  27.1158854166667 6.08723958333326  27.5143229166667 6.48567708333326  Z M 18.693359375 3.04361979166674  C 17.6677517361111 3.05099826388891  17.1032986111111 3.0546875  17 3.0546875  C 16.8967013888889 3.0546875  16.3322482638889 3.05099826388891  15.306640625 3.04361979166674  C 14.2810329861111 3.03624131944434  13.5026041666667 3.03624131944434  12.9713541666667 3.04361979166674  C 12.4401041666667 3.05099826388891  11.7280815972222 3.07313368055566  10.8352864583333 3.11002604166674  C 9.94249131944446 3.1469184027776  9.18250868055554 3.220703125  8.55533854166666 3.33138020833326  C 7.9281684027778 3.44205729166674  7.40060763888889 3.5785590277776  6.97265625 3.74088541666674  C 6.2348090277778 4.03602430555566  5.5855034722222 4.46397569444434  5.02473958333334 5.02473958333326  C 4.46397569444446 5.5855034722224  4.03602430555554 6.2348090277776  3.74088541666666 6.97265625  C 3.5785590277778 7.40060763888891  3.44205729166666 7.9281684027776  3.33138020833334 8.55533854166674  C 3.220703125 9.18250868055566  3.1469184027778 9.94249131944434  3.11002604166666 10.8352864583333  C 3.07313368055554 11.7280815972224  3.05099826388889 12.4401041666667  3.04361979166666 12.9713541666667  C 3.03624131944446 13.5026041666667  3.03624131944446 14.2810329861111  3.04361979166666 15.306640625  C 3.05099826388889 16.3322482638889  3.0546875 16.8967013888889  3.0546875 17  C 3.0546875 17.1032986111111  3.05099826388889 17.6677517361111  3.04361979166666 18.693359375  C 3.03624131944446 19.7189670138889  3.03624131944446 20.4973958333333  3.04361979166666 21.0286458333333  C 3.05099826388889 21.5598958333333  3.07313368055554 22.2719184027776  3.11002604166666 23.1647135416667  C 3.1469184027778 24.0575086805557  3.220703125 24.8174913194443  3.33138020833334 25.4446614583333  C 3.44205729166666 26.0718315972224  3.5785590277778 26.5993923611111  3.74088541666666 27.02734375  C 4.03602430555554 27.7651909722224  4.46397569444446 28.4144965277776  5.02473958333334 28.9752604166667  C 5.5855034722222 29.5360243055557  6.2348090277778 29.9639756944443  6.97265625 30.2591145833333  C 7.40060763888889 30.4214409722224  7.9281684027778 30.5579427083333  8.55533854166666 30.6686197916667  C 9.18250868055554 30.779296875  9.94249131944446 30.8530815972224  10.8352864583333 30.8899739583333  C 11.7280815972222 30.9268663194443  12.4401041666667 30.9490017361111  12.9713541666667 30.9563802083333  C 13.5026041666667 30.9637586805557  14.2810329861111 30.9637586805557  15.306640625 30.9563802083333  C 16.3322482638889 30.9490017361111  16.8967013888889 30.9453125  17 30.9453125  C 17.1032986111111 30.9453125  17.6677517361111 30.9490017361111  18.693359375 30.9563802083333  C 19.7189670138889 30.9637586805557  20.4973958333333 30.9637586805557  21.0286458333333 30.9563802083333  C 21.5598958333333 30.9490017361111  22.2719184027778 30.9268663194443  23.1647135416667 30.8899739583333  C 24.0575086805555 30.8530815972224  24.8174913194445 30.779296875  25.4446614583333 30.6686197916667  C 26.0718315972222 30.5579427083333  26.5993923611111 30.4214409722224  27.02734375 30.2591145833333  C 27.7651909722222 29.9639756944443  28.4144965277778 29.5360243055557  28.9752604166667 28.9752604166667  C 29.5360243055555 28.4144965277776  29.9639756944445 27.7651909722224  30.2591145833333 27.02734375  C 30.4214409722222 26.5993923611111  30.5579427083333 26.0718315972224  30.6686197916667 25.4446614583333  C 30.779296875 24.8174913194443  30.8530815972222 24.0575086805557  30.8899739583333 23.1647135416667  C 30.9268663194445 22.2719184027776  30.9490017361111 21.5598958333333  30.9563802083333 21.0286458333333  C 30.9637586805555 20.4973958333333  30.9637586805555 19.7189670138889  30.9563802083333 18.693359375  C 30.9490017361111 17.6677517361111  30.9453125 17.1032986111111  30.9453125 17  C 30.9453125 16.8967013888889  30.9490017361111 16.3322482638889  30.9563802083333 15.306640625  C 30.9637586805555 14.2810329861111  30.9637586805555 13.5026041666667  30.9563802083333 12.9713541666667  C 30.9490017361111 12.4401041666667  30.9268663194445 11.7280815972224  30.8899739583333 10.8352864583333  C 30.8530815972222 9.94249131944434  30.779296875 9.18250868055566  30.6686197916667 8.55533854166674  C 30.5579427083333 7.9281684027776  30.4214409722222 7.40060763888891  30.2591145833333 6.97265625  C 29.9639756944445 6.2348090277776  29.5360243055555 5.5855034722224  28.9752604166667 5.02473958333326  C 28.4144965277778 4.46397569444434  27.7651909722222 4.03602430555566  27.02734375 3.74088541666674  C 26.5993923611111 3.5785590277776  26.0718315972222 3.44205729166674  25.4446614583333 3.33138020833326  C 24.8174913194445 3.220703125  24.0575086805555 3.1469184027776  23.1647135416667 3.11002604166674  C 22.2719184027778 3.07313368055566  21.5598958333333 3.05099826388891  21.0286458333333 3.04361979166674  C 20.4973958333333 3.03624131944434  19.7189670138889 3.03624131944434  18.693359375 3.04361979166674  Z M 33.8893229166667 9.98307291666674  C 33.9631076388889 11.2816840277776  34 13.6206597222224  34 17  C 34 20.3793402777776  33.9631076388889 22.7183159722224  33.8893229166667 24.0169270833333  C 33.7417534722222 27.0863715277776  32.8268229166667 29.4622395833333  31.14453125 31.14453125  C 29.4622395833333 32.8268229166667  27.0863715277778 33.7417534722224  24.0169270833333 33.8893229166667  C 22.7183159722222 33.9631076388889  20.3793402777778 34  17 34  C 13.6206597222222 34  11.2816840277778 33.9631076388889  9.98307291666666 33.8893229166667  C 6.9136284722222 33.7417534722224  4.53776041666666 32.8268229166667  2.85546875 31.14453125  C 1.17317708333334 29.4622395833333  0.2582465277778 27.0863715277776  0.110677083333343 24.0169270833333  C 0.0368923611111143 22.7183159722224  0 20.3793402777776  0 17  C 0 13.6206597222224  0.0368923611111143 11.2816840277776  0.110677083333343 9.98307291666674  C 0.2582465277778 6.9136284722224  1.17317708333334 4.53776041666674  2.85546875 2.85546875  C 4.53776041666666 1.17317708333326  6.9136284722222 0.258246527777601  9.98307291666666 0.110677083333258  C 11.2816840277778 0.0368923611110858  13.6206597222222 0  17 0  C 20.3793402777778 0  22.7183159722222 0.0368923611110858  24.0169270833333 0.110677083333258  C 27.0863715277778 0.258246527777601  29.4622395833333 1.17317708333326  31.14453125 2.85546875  C 32.8268229166667 4.53776041666674  33.7417534722222 6.9136284722224  33.8893229166667 9.98307291666674  Z " fill-rule="nonzero" fill="#ffffff" stroke="none" transform="matrix(1 0 0 1 191 2181 )" />
  </g>
</svg>