<?xml version="1.0" encoding="utf-8"?>
<svg version="1.1" xmlns:xlink="http://www.w3.org/1999/xlink" width="34px" height="34px" xmlns="http://www.w3.org/2000/svg">
  <g transform="matrix(1 0 0 1 -150 -2181 )">
    <path d="M 26.0091145833333 13.08203125  C 26.9388020833333 12.41796875  27.7135416666667 11.6137152777776  28.3333333333333 10.6692708333333  C 27.5069444444445 11.0381944444443  26.6141493055555 11.2890625  25.6549479166667 11.421875  C 26.6584201388889 10.8315972222224  27.3446180555555 9.9683159722224  27.7135416666667 8.83203125  C 26.7543402777778 9.39279513888891  25.765625 9.7690972222224  24.7473958333333 9.9609375  C 23.8472222222222 8.98697916666674  22.7183159722222 8.5  21.3606770833333 8.5  C 20.0768229166667 8.5  18.9811197916667 8.95377604166674  18.0735677083333 9.861328125  C 17.166015625 10.7688802083333  16.7122395833333 11.8645833333333  16.7122395833333 13.1484375  C 16.7122395833333 13.5763888888889  16.7491319444445 13.9305555555557  16.8229166666667 14.2109375  C 14.9192708333333 14.1076388888889  13.1336805555555 13.6280381944443  11.4661458333333 12.7721354166667  C 9.79861111111111 11.9162326388889  8.38194444444446 10.7725694444443  7.21614583333334 9.34114583333326  C 6.78819444444446 10.0789930555557  6.57421875 10.8611111111111  6.57421875 11.6875  C 6.57421875 13.3697916666667  7.2456597222222 14.6610243055557  8.58854166666666 15.5611979166667  C 7.8949652777778 15.5464409722224  7.15711805555554 15.3546006944443  6.375 14.9856770833333  L 6.375 15.0299479166667  C 6.375 16.13671875  6.74392361111111 17.1217447916667  7.48177083333334 17.9850260416667  C 8.21961805555554 18.8483072916667  9.12717013888889 19.3832465277776  10.2044270833333 19.58984375  C 9.77647569444446 19.7078993055557  9.40017361111111 19.7669270833333  9.07552083333334 19.7669270833333  C 8.88368055555554 19.7669270833333  8.59592013888889 19.7374131944443  8.21223958333334 19.6783854166667  C 8.52213541666666 20.6080729166667  9.0718315972222 21.3754340277776  9.861328125 21.98046875  C 10.6508246527778 22.5855034722224  11.5473090277778 22.8953993055557  12.55078125 22.91015625  C 10.8389756944445 24.23828125  8.91319444444446 24.90234375  6.7734375 24.90234375  C 6.38975694444446 24.90234375  6.02083333333334 24.8802083333333  5.66666666666666 24.8359375  C 7.85069444444446 26.2230902777776  10.2265625 26.9166666666667  12.7942708333333 26.9166666666667  C 14.4470486111111 26.9166666666667  15.9965277777778 26.6547309027776  17.4427083333333 26.130859375  C 18.8888888888889 25.6069878472224  20.1284722222222 24.9060329861111  21.1614583333333 24.0279947916667  C 22.1944444444445 23.1499565972224  23.0835503472222 22.1391059027776  23.8287760416667 20.9954427083333  C 24.5740017361111 19.8517795138889  25.1273871527778 18.6564670138889  25.4889322916667 17.4095052083333  C 25.8504774305555 16.1625434027776  26.03125 14.9192708333333  26.03125 13.6796875  C 26.03125 13.4140625  26.0238715277778 13.21484375  26.0091145833333 13.08203125  Z M 32.1295572916667 1.87044270833326  C 33.3765190972222 3.11740451388891  34 4.61892361111109  34 6.375  L 34 27.625  C 34 29.3810763888889  33.3765190972222 30.8825954861111  32.1295572916667 32.1295572916667  C 30.8825954861111 33.3765190972224  29.3810763888889 34  27.625 34  L 6.375 34  C 4.61892361111111 34  3.11740451388889 33.3765190972224  1.87044270833334 32.1295572916667  C 0.6234809027778 30.8825954861111  0 29.3810763888889  0 27.625  L 0 6.375  C 0 4.61892361111109  0.6234809027778 3.11740451388891  1.87044270833334 1.87044270833326  C 3.11740451388889 0.623480902777601  4.61892361111111 0  6.375 0  L 27.625 0  C 29.3810763888889 0  30.8825954861111 0.623480902777601  32.1295572916667 1.87044270833326  Z " fill-rule="nonzero" fill="#ffffff" stroke="none" transform="matrix(1 0 0 1 150 2181 )" />
  </g>
</svg>